<svg t="1718952789500" class="icon" viewBox="0 0 1024 1024" version="1.1" xmlns="http://www.w3.org/2000/svg" p-id="6574" width="200" height="200"><path d="M512 0a512 512 0 0 1 512 512 512 512 0 0 1-512 512 512 512 0 0 1-512-512 512 512 0 0 1 512-512zM204.8 230.4L472.120889 921.6l372.679111-466.090667-133.575111-129.422222L204.8 230.4z m78.108444 95.288889l220.728889 188.700444-31.118222 306.232889-189.610667-494.933333z m492.657778 161.336889L509.724444 817.777778l31.288889-290.986667 234.552889-39.822222z m-72.362666-113.493334l76.401777 72.192-203.434666 35.498667 127.032889-107.690667z m-392.533334-82.944l350.947556 64-137.102222 119.409778-213.845334-183.409778z" fill="#CA2832" p-id="6575"></path></svg>